<svg width="1920" height="1080" viewBox="0 0 1920 1080" fill="none" xmlns="http://www.w3.org/2000/svg">
<rect width="1920" height="1080" fill="#071E34"/>
<path d="M373 591.805L384.645 487H405.045L393.4 591.805H373ZM439.15 591.805L450.795 487H471.195L459.55 591.805H439.15ZM390.919 546.633L392.907 528.743H451.857L449.869 546.633H390.919Z" fill="white"/>
<path d="M540.355 591.805L500.685 537.092L550.8 487H576.3L520.604 541.415L521.648 532.023L566.305 591.805H540.355ZM476.605 591.805L488.25 487H508.65L497.005 591.805H476.605Z" fill="white"/>
<path d="M590.629 546.335L591.789 535.899H620.889C627.289 535.899 632.371 534.259 636.135 530.979C640 527.7 642.236 523.326 642.843 517.86C643.428 512.593 642.209 508.269 639.184 504.89C636.171 501.411 631.464 499.672 625.064 499.672H595.814L597.023 488.789H626.423C633.023 488.789 638.585 490.031 643.109 492.516C647.733 495.001 651.102 498.43 653.216 502.803C655.441 507.076 656.245 511.996 655.626 517.562C654.986 523.326 653.073 528.395 649.887 532.768C646.812 537.042 642.692 540.372 637.527 542.757C632.462 545.142 626.629 546.335 620.029 546.335H590.629ZM577.327 591.805L588.773 488.789H601.373L589.927 591.805H577.327ZM638.527 591.805L605.495 544.844L617.926 540.968L654.427 591.805H638.527Z" fill="white"/>
<path d="M693.196 593.296C686.096 593.296 679.872 591.706 674.526 588.525C669.279 585.345 665.315 580.972 662.633 575.406C660.052 569.84 659.153 563.529 659.937 556.472C660.71 549.515 663 543.304 666.808 537.837C670.626 532.271 675.462 527.898 681.315 524.718C687.18 521.438 693.562 519.798 700.462 519.798C706.962 519.798 712.546 521.289 717.215 524.271C721.884 527.252 725.331 531.327 727.557 536.495C729.883 541.664 730.676 547.577 729.936 554.236C729.836 555.131 729.676 556.125 729.454 557.218C729.233 558.311 728.895 559.554 728.44 560.945H667.84L668.95 550.956H723.1L718.336 554.683C718.877 549.813 718.441 545.639 717.027 542.161C715.725 538.583 713.534 535.8 710.455 533.812C707.376 531.824 703.536 530.83 698.936 530.83C694.036 530.83 689.615 531.924 685.672 534.11C681.84 536.197 678.714 539.129 676.295 542.906C673.886 546.583 672.395 551.006 671.82 556.174C671.246 561.343 671.794 565.865 673.463 569.741C675.132 573.617 677.795 576.648 681.452 578.835C685.109 581.021 689.488 582.115 694.588 582.115C698.688 582.115 702.521 581.369 706.087 579.878C709.752 578.388 712.995 576.201 715.815 573.319L722.604 581.071C718.862 585.047 714.425 588.078 709.294 590.165C704.162 592.252 698.796 593.296 693.196 593.296Z" fill="white"/>
<path d="M768.812 593.296C761.812 593.296 755.689 591.706 750.442 588.525C745.207 585.245 741.298 580.823 738.716 575.257C736.146 569.592 735.242 563.33 736.004 556.472C736.777 549.515 739.067 543.304 742.874 537.837C746.693 532.271 751.578 527.898 757.532 524.718C763.496 521.438 769.978 519.798 776.978 519.798C782.378 519.798 787.263 520.842 791.631 522.929C796.11 524.917 799.79 527.799 802.67 531.576L793.842 539.477C791.829 536.893 789.25 534.905 786.105 533.514C782.959 532.122 779.486 531.427 775.686 531.427C770.986 531.427 766.615 532.52 762.572 534.706C758.64 536.794 755.414 539.726 752.895 543.502C750.375 547.279 748.845 551.602 748.304 556.472C747.762 561.343 748.327 565.716 749.996 569.592C751.676 573.368 754.245 576.35 757.702 578.537C761.259 580.723 765.388 581.817 770.088 581.817C773.988 581.817 777.615 581.121 780.969 579.729C784.424 578.338 787.5 576.3 790.199 573.617L797.271 581.518C793.551 585.295 789.225 588.227 784.293 590.314C779.373 592.302 774.212 593.296 768.812 593.296Z" fill="white"/>
<path d="M805.613 591.805L813.448 521.289H825.598L817.763 591.805H805.613ZM822.268 551.255L817.7 549.167C818.694 540.222 821.584 533.116 826.369 527.849C831.266 522.482 837.614 519.798 845.414 519.798C848.914 519.798 852.042 520.444 854.798 521.736C857.655 523.028 860.178 525.066 862.369 527.849L853.525 535.899C852.112 534.209 850.445 533.017 848.522 532.321C846.711 531.526 844.555 531.128 842.055 531.128C836.955 531.128 832.567 532.818 828.892 536.197C825.227 539.477 823.019 544.496 822.268 551.255Z" fill="white"/>
<path d="M889.063 593.296C883.263 593.296 878.206 592.004 873.894 589.42C869.692 586.736 866.545 583.109 864.453 578.537C862.472 573.865 861.824 568.449 862.508 562.287L867.064 521.289H879.064L874.558 561.839C874.105 565.914 874.413 569.443 875.482 572.424C876.651 575.406 878.491 577.742 881.003 579.431C883.627 581.021 886.738 581.817 890.338 581.817C896.038 581.817 900.687 580.028 904.285 576.45C907.882 572.872 910.023 568.002 910.708 561.839L915.214 521.289H927.214L922.658 562.287C921.974 568.449 920.072 573.865 916.953 578.537C913.934 583.208 909.981 586.836 905.094 589.42C900.306 592.004 894.963 593.296 889.063 593.296Z" fill="white"/>
<path d="M933.726 591.805L941.561 521.289H953.561L945.726 591.805H933.726ZM949.184 506.679C946.884 506.679 945.067 505.933 943.733 504.443C942.509 502.852 942.019 500.964 942.262 498.778C942.516 496.492 943.426 494.603 944.992 493.112C946.668 491.522 948.657 490.727 950.957 490.727C953.257 490.727 955.068 491.522 956.392 493.112C957.726 494.603 958.266 496.492 958.012 498.778C957.769 500.964 956.809 502.852 955.133 504.443C953.467 505.933 951.484 506.679 949.184 506.679Z" fill="white"/>
<path d="M972.692 591.805L983.807 491.771H995.957L984.842 591.805H972.692ZM961.768 532.172L962.977 521.289H1010.23L1009.02 532.172H961.768Z" fill="white"/>
<path d="M1011.59 591.805L1019.42 521.289H1031.57L1023.74 591.805H1011.59ZM1060.04 591.805L1064.81 548.869C1065.42 543.403 1064.2 539.08 1061.15 535.899C1058.11 532.619 1054.05 530.979 1048.95 530.979C1045.45 530.979 1042.21 531.725 1039.25 533.216C1036.38 534.706 1033.95 536.794 1031.95 539.477C1030.06 542.061 1028.92 545.192 1028.51 548.869L1023.52 546.484C1024.12 541.117 1025.79 536.446 1028.53 532.47C1031.37 528.495 1034.96 525.414 1039.31 523.227C1043.66 520.941 1048.39 519.798 1053.49 519.798C1058.49 519.798 1062.87 520.891 1066.62 523.078C1070.38 525.265 1073.19 528.346 1075.05 532.321C1077.01 536.297 1077.68 541.067 1077.06 546.633L1072.04 591.805H1060.04ZM1108.34 591.805L1113.11 548.869C1113.72 543.403 1112.5 539.08 1109.45 535.899C1106.41 532.619 1102.35 530.979 1097.25 530.979C1093.85 530.979 1090.66 531.725 1087.7 533.216C1084.73 534.706 1082.25 536.794 1080.25 539.477C1078.36 542.061 1077.22 545.192 1076.81 548.869L1070.02 546.484C1070.92 541.117 1072.89 536.446 1075.93 532.47C1078.97 528.495 1082.71 525.414 1087.16 523.227C1091.61 520.941 1096.34 519.798 1101.34 519.798C1106.44 519.798 1110.87 520.891 1114.62 523.078C1118.48 525.265 1121.38 528.395 1123.33 532.47C1125.29 536.446 1125.96 541.167 1125.36 546.633L1120.34 591.805H1108.34Z" fill="white"/>
<path d="M1167.51 593.296C1160.41 593.296 1154.18 591.706 1148.84 588.525C1143.59 585.345 1139.63 580.972 1136.94 575.406C1134.36 569.84 1133.46 563.529 1134.25 556.472C1135.02 549.515 1137.31 543.304 1141.12 537.837C1144.94 532.271 1149.77 527.898 1155.63 524.718C1161.49 521.438 1167.87 519.798 1174.77 519.798C1181.27 519.798 1186.86 521.289 1191.53 524.271C1196.19 527.252 1199.64 531.327 1201.87 536.495C1204.19 541.664 1204.99 547.577 1204.25 554.236C1204.15 555.131 1203.99 556.125 1203.76 557.218C1203.54 558.311 1203.21 559.554 1202.75 560.945H1142.15L1143.26 550.956H1197.41L1192.65 554.683C1193.19 549.813 1192.75 545.639 1191.34 542.161C1190.04 538.583 1187.84 535.8 1184.77 533.812C1181.69 531.824 1177.85 530.83 1173.25 530.83C1168.35 530.83 1163.93 531.924 1159.98 534.11C1156.15 536.197 1153.02 539.129 1150.61 542.906C1148.2 546.583 1146.71 551.006 1146.13 556.174C1145.56 561.343 1146.1 565.865 1147.77 569.741C1149.44 573.617 1152.11 576.648 1155.76 578.835C1159.42 581.021 1163.8 582.115 1168.9 582.115C1173 582.115 1176.83 581.369 1180.4 579.878C1184.06 578.388 1187.31 576.201 1190.13 573.319L1196.91 581.071C1193.17 585.047 1188.74 588.078 1183.6 590.165C1178.47 592.252 1173.11 593.296 1167.51 593.296Z" fill="white"/>
<path d="M1261.74 591.805L1266.31 550.658C1266.95 544.894 1265.73 540.173 1262.63 536.495C1259.54 532.818 1255.15 530.979 1249.45 530.979C1245.55 530.979 1242 531.824 1238.82 533.514C1235.73 535.203 1233.17 537.539 1231.14 540.521C1229.22 543.403 1228.05 546.732 1227.63 550.509L1222.69 547.677C1223.29 542.31 1225.02 537.539 1227.88 533.365C1230.85 529.19 1234.56 525.911 1239.02 523.525C1243.6 521.041 1248.64 519.798 1254.14 519.798C1259.54 519.798 1264.14 521.14 1267.94 523.823C1271.84 526.507 1274.75 530.035 1276.67 534.408C1278.59 538.682 1279.27 543.353 1278.71 548.422L1273.89 591.805H1261.74ZM1210.89 591.805L1218.72 521.289H1230.87L1223.04 591.805H1210.89Z" fill="white"/>
<path d="M1298.34 591.805L1309.46 491.771H1321.61L1310.49 591.805H1298.34ZM1287.42 532.172L1288.63 521.289H1335.88L1334.67 532.172H1287.42Z" fill="white"/>
<path d="M1424.65 488.968C1424.95 489.27 1425.31 489.53 1425.55 489.886C1425.87 490.563 1426.02 491.328 1426.35 492.001C1427.24 492.643 1428.44 492.449 1429.53 492.468C1430.07 491.943 1430.64 491.449 1431.21 490.943C1431.94 490.94 1432.66 490.953 1433.39 490.947C1434.13 490.95 1434.84 490.604 1435.57 490.515C1436.26 490.588 1436.88 490.924 1437.58 490.943C1438.36 490.955 1439.13 490.935 1439.91 490.951C1440.31 491.48 1440.77 491.964 1441.21 492.465C1442.3 492.443 1443.51 492.666 1444.52 491.96C1444.92 491.376 1445.22 490.741 1445.58 490.141C1445.86 489.635 1446.4 489.353 1446.83 488.985C1446.62 490.292 1446.46 491.603 1446.21 492.905C1445.84 493.497 1445.41 494.069 1444.96 494.614C1443.82 495.363 1442.6 495.991 1441.44 496.707C1441.24 498.113 1441.15 499.532 1440.86 500.931C1440.02 502.461 1439.05 503.932 1438.22 505.465C1438.14 506.15 1438.17 506.83 1438.15 507.512C1437.45 508.482 1436.75 509.45 1436.06 510.421C1434.27 510.424 1432.49 510.418 1430.7 510.424C1430.22 509.462 1429.74 508.497 1429.26 507.534C1429.36 506.855 1429.55 506.181 1429.63 505.503C1429.16 503.924 1428.45 502.433 1427.98 500.854C1428.04 499.467 1428.26 498.075 1428.33 496.688C1427.41 496.071 1426.49 495.447 1425.56 494.835C1425.17 494.607 1425.04 494.141 1424.83 493.767C1424.66 493.382 1424.35 493.026 1424.42 492.559C1424.51 491.362 1424.61 490.162 1424.65 488.968Z" fill="white"/>
<path fill-rule="evenodd" clip-rule="evenodd" d="M1472.27 500.476C1458.69 509.323 1445.12 518.198 1431.53 527.035C1419.93 518.168 1408.32 509.327 1396.72 500.463C1410.29 491.614 1423.86 482.765 1437.43 473.911C1449.04 482.766 1460.66 491.619 1472.27 500.476ZM1440.34 478.578C1440.23 479.469 1440.17 480.361 1440.03 481.252C1439.71 482.952 1437.93 484.371 1436.23 484.3C1434.54 484.322 1433.17 482.916 1433.19 481.262C1433.22 480.382 1433.38 479.499 1433.45 478.617C1422.32 485.893 1411.19 493.173 1400.06 500.447C1409.58 507.724 1419.1 515.013 1428.64 522.277C1428.85 521.148 1428.73 519.971 1429.23 518.877C1429.85 517.525 1431.37 516.56 1432.8 516.625C1434.27 516.63 1435.51 517.692 1435.75 519.083C1435.9 520.122 1435.6 521.21 1435.54 522.27C1446.68 515.004 1457.82 507.727 1468.96 500.446C1459.42 493.158 1449.89 485.863 1440.34 478.578Z" fill="white"/>
<path fill-rule="evenodd" clip-rule="evenodd" d="M1384.3 462.105H1501L1492.5 538.819H1375.35L1369 593.214H1356L1372.25 454H1385.25L1384.3 462.105ZM1438 468.734C1421.78 479.319 1405.55 489.89 1389.33 500.478C1403.21 511.045 1417.09 521.619 1430.97 532.189C1447.2 521.633 1463.41 511.046 1479.64 500.478C1465.77 489.887 1451.87 479.322 1438 468.734Z" fill="white"/>
</svg>
