<svg width="1920" height="500" viewBox="0 0 1920 500" fill="none" xmlns="http://www.w3.org/2000/svg">
<rect width="1920" height="500" fill="#071E34"/>
<path d="M373 301.805L384.645 197H405.045L393.4 301.805H373ZM439.15 301.805L450.795 197H471.195L459.55 301.805H439.15ZM390.919 256.633L392.907 238.743H451.857L449.869 256.633H390.919Z" fill="white"/>
<path d="M540.355 301.805L500.685 247.092L550.8 197H576.3L520.604 251.415L521.648 242.023L566.305 301.805H540.355ZM476.605 301.805L488.25 197H508.65L497.005 301.805H476.605Z" fill="white"/>
<path d="M590.629 256.335L591.789 245.899H620.889C627.289 245.899 632.371 244.259 636.135 240.979C640 237.7 642.236 233.326 642.843 227.86C643.428 222.593 642.209 218.269 639.184 214.89C636.171 211.411 631.464 209.672 625.064 209.672H595.814L597.023 198.789H626.423C633.023 198.789 638.585 200.031 643.109 202.516C647.733 205.001 651.102 208.43 653.216 212.803C655.441 217.076 656.245 221.996 655.626 227.562C654.986 233.326 653.072 238.395 649.887 242.768C646.812 247.042 642.692 250.372 637.527 252.757C632.462 255.142 626.629 256.335 620.029 256.335H590.629ZM577.327 301.805L588.773 198.789H601.373L589.927 301.805H577.327ZM638.527 301.805L605.495 254.844L617.926 250.968L654.427 301.805H638.527Z" fill="white"/>
<path d="M693.196 303.296C686.096 303.296 679.872 301.706 674.526 298.525C669.279 295.345 665.315 290.972 662.633 285.406C660.052 279.84 659.153 273.529 659.937 266.472C660.71 259.515 663 253.304 666.808 247.837C670.626 242.271 675.462 237.898 681.315 234.718C687.18 231.438 693.562 229.798 700.462 229.798C706.962 229.798 712.546 231.289 717.215 234.271C721.884 237.252 725.331 241.327 727.557 246.495C729.883 251.664 730.676 257.577 729.936 264.236C729.836 265.131 729.676 266.125 729.454 267.218C729.233 268.311 728.895 269.554 728.44 270.945H667.84L668.95 260.956H723.1L718.336 264.683C718.877 259.813 718.441 255.639 717.027 252.161C715.725 248.583 713.534 245.8 710.455 243.812C707.376 241.824 703.536 240.83 698.936 240.83C694.036 240.83 689.615 241.924 685.672 244.11C681.84 246.197 678.714 249.129 676.295 252.906C673.886 256.583 672.395 261.006 671.82 266.174C671.246 271.343 671.794 275.865 673.463 279.741C675.132 283.617 677.795 286.648 681.452 288.835C685.11 291.021 689.488 292.115 694.588 292.115C698.688 292.115 702.521 291.369 706.087 289.878C709.752 288.388 712.995 286.201 715.815 283.319L722.604 291.071C718.862 295.047 714.425 298.078 709.294 300.165C704.162 302.252 698.796 303.296 693.196 303.296Z" fill="white"/>
<path d="M768.812 303.296C761.812 303.296 755.689 301.706 750.442 298.525C745.207 295.245 741.298 290.823 738.716 285.257C736.146 279.592 735.242 273.33 736.004 266.472C736.777 259.515 739.067 253.304 742.874 247.837C746.693 242.271 751.578 237.898 757.532 234.718C763.496 231.438 769.978 229.798 776.978 229.798C782.378 229.798 787.263 230.842 791.631 232.929C796.11 234.917 799.79 237.799 802.67 241.576L793.842 249.477C791.829 246.893 789.25 244.905 786.105 243.514C782.959 242.122 779.486 241.427 775.686 241.427C770.986 241.427 766.615 242.52 762.572 244.706C758.64 246.794 755.414 249.726 752.895 253.502C750.375 257.279 748.845 261.602 748.304 266.472C747.762 271.343 748.327 275.716 749.996 279.592C751.676 283.368 754.245 286.35 757.702 288.537C761.259 290.723 765.388 291.817 770.088 291.817C773.988 291.817 777.615 291.121 780.969 289.729C784.424 288.338 787.5 286.3 790.199 283.617L797.271 291.518C793.551 295.295 789.225 298.227 784.293 300.314C779.373 302.302 774.212 303.296 768.812 303.296Z" fill="white"/>
<path d="M805.613 301.805L813.448 231.289H825.598L817.763 301.805H805.613ZM822.268 261.255L817.7 259.167C818.694 250.222 821.584 243.116 826.369 237.849C831.266 232.482 837.614 229.798 845.414 229.798C848.914 229.798 852.042 230.444 854.798 231.736C857.655 233.028 860.178 235.066 862.369 237.849L853.525 245.899C852.112 244.209 850.445 243.017 848.522 242.321C846.711 241.526 844.555 241.128 842.055 241.128C836.955 241.128 832.567 242.818 828.892 246.197C825.227 249.477 823.019 254.496 822.268 261.255Z" fill="white"/>
<path d="M889.063 303.296C883.263 303.296 878.206 302.004 873.894 299.42C869.692 296.736 866.545 293.109 864.453 288.537C862.472 283.865 861.824 278.449 862.508 272.287L867.064 231.289H879.064L874.558 271.839C874.105 275.914 874.413 279.443 875.482 282.424C876.651 285.406 878.491 287.742 881.003 289.431C883.627 291.021 886.738 291.817 890.338 291.817C896.038 291.817 900.687 290.028 904.285 286.45C907.882 282.872 910.023 278.002 910.708 271.839L915.214 231.289H927.214L922.658 272.287C921.974 278.449 920.072 283.865 916.953 288.537C913.934 293.208 909.981 296.836 905.094 299.42C900.306 302.004 894.963 303.296 889.063 303.296Z" fill="white"/>
<path d="M933.726 301.805L941.561 231.289H953.561L945.726 301.805H933.726ZM949.184 216.679C946.884 216.679 945.067 215.933 943.733 214.443C942.509 212.852 942.019 210.964 942.262 208.778C942.516 206.492 943.426 204.603 944.992 203.112C946.668 201.522 948.657 200.727 950.957 200.727C953.257 200.727 955.068 201.522 956.392 203.112C957.726 204.603 958.266 206.492 958.012 208.778C957.769 210.964 956.809 212.852 955.133 214.443C953.467 215.933 951.484 216.679 949.184 216.679Z" fill="white"/>
<path d="M972.692 301.805L983.807 201.771H995.957L984.842 301.805H972.692ZM961.768 242.172L962.977 231.289H1010.23L1009.02 242.172H961.768Z" fill="white"/>
<path d="M1011.59 301.805L1019.42 231.289H1031.57L1023.74 301.805H1011.59ZM1060.04 301.805L1064.81 258.869C1065.42 253.403 1064.2 249.08 1061.15 245.899C1058.11 242.619 1054.05 240.979 1048.95 240.979C1045.45 240.979 1042.21 241.725 1039.25 243.216C1036.38 244.706 1033.95 246.794 1031.95 249.477C1030.06 252.061 1028.92 255.192 1028.51 258.869L1023.52 256.484C1024.12 251.117 1025.79 246.446 1028.53 242.47C1031.37 238.495 1034.96 235.414 1039.31 233.227C1043.66 230.941 1048.39 229.798 1053.49 229.798C1058.49 229.798 1062.87 230.891 1066.62 233.078C1070.38 235.265 1073.19 238.346 1075.05 242.321C1077.01 246.297 1077.68 251.067 1077.06 256.633L1072.04 301.805H1060.04ZM1108.34 301.805L1113.11 258.869C1113.72 253.403 1112.5 249.08 1109.45 245.899C1106.41 242.619 1102.35 240.979 1097.25 240.979C1093.85 240.979 1090.66 241.725 1087.7 243.216C1084.73 244.706 1082.25 246.794 1080.25 249.477C1078.36 252.061 1077.22 255.192 1076.81 258.869L1070.02 256.484C1070.92 251.117 1072.89 246.446 1075.93 242.47C1078.97 238.495 1082.71 235.414 1087.16 233.227C1091.61 230.941 1096.34 229.798 1101.34 229.798C1106.44 229.798 1110.87 230.891 1114.62 233.078C1118.48 235.265 1121.38 238.395 1123.33 242.47C1125.29 246.446 1125.96 251.167 1125.36 256.633L1120.34 301.805H1108.34Z" fill="white"/>
<path d="M1167.51 303.296C1160.41 303.296 1154.18 301.706 1148.84 298.525C1143.59 295.345 1139.63 290.972 1136.94 285.406C1134.36 279.84 1133.46 273.529 1134.25 266.472C1135.02 259.515 1137.31 253.304 1141.12 247.837C1144.94 242.271 1149.77 237.898 1155.63 234.718C1161.49 231.438 1167.87 229.798 1174.77 229.798C1181.27 229.798 1186.86 231.289 1191.53 234.271C1196.19 237.252 1199.64 241.327 1201.87 246.495C1204.19 251.664 1204.99 257.577 1204.25 264.236C1204.15 265.131 1203.99 266.125 1203.76 267.218C1203.54 268.311 1203.21 269.554 1202.75 270.945H1142.15L1143.26 260.956H1197.41L1192.65 264.683C1193.19 259.813 1192.75 255.639 1191.34 252.161C1190.04 248.583 1187.84 245.8 1184.77 243.812C1181.69 241.824 1177.85 240.83 1173.25 240.83C1168.35 240.83 1163.93 241.924 1159.98 244.11C1156.15 246.197 1153.02 249.129 1150.61 252.906C1148.2 256.583 1146.71 261.006 1146.13 266.174C1145.56 271.343 1146.1 275.865 1147.77 279.741C1149.44 283.617 1152.11 286.648 1155.76 288.835C1159.42 291.021 1163.8 292.115 1168.9 292.115C1173 292.115 1176.83 291.369 1180.4 289.878C1184.06 288.388 1187.31 286.201 1190.13 283.319L1196.91 291.071C1193.17 295.047 1188.74 298.078 1183.6 300.165C1178.47 302.252 1173.11 303.296 1167.51 303.296Z" fill="white"/>
<path d="M1261.74 301.805L1266.31 260.658C1266.95 254.894 1265.73 250.173 1262.63 246.495C1259.54 242.818 1255.15 240.979 1249.45 240.979C1245.55 240.979 1242 241.824 1238.82 243.514C1235.73 245.203 1233.17 247.539 1231.14 250.521C1229.22 253.403 1228.05 256.732 1227.63 260.509L1222.69 257.677C1223.29 252.31 1225.02 247.539 1227.88 243.365C1230.85 239.19 1234.56 235.911 1239.02 233.525C1243.6 231.041 1248.64 229.798 1254.14 229.798C1259.54 229.798 1264.14 231.14 1267.94 233.823C1271.84 236.507 1274.75 240.035 1276.67 244.408C1278.59 248.682 1279.27 253.353 1278.71 258.422L1273.89 301.805H1261.74ZM1210.89 301.805L1218.72 231.289H1230.87L1223.04 301.805H1210.89Z" fill="white"/>
<path d="M1298.34 301.805L1309.46 201.771H1321.61L1310.49 301.805H1298.34ZM1287.42 242.172L1288.63 231.289H1335.88L1334.67 242.172H1287.42Z" fill="white"/>
<path d="M1424.65 198.968C1424.95 199.27 1425.31 199.53 1425.55 199.886C1425.87 200.563 1426.02 201.328 1426.35 202.001C1427.24 202.643 1428.44 202.449 1429.53 202.468C1430.07 201.943 1430.64 201.449 1431.21 200.943C1431.94 200.94 1432.66 200.953 1433.39 200.947C1434.13 200.95 1434.84 200.604 1435.57 200.515C1436.26 200.588 1436.88 200.924 1437.58 200.943C1438.36 200.955 1439.13 200.935 1439.91 200.951C1440.31 201.48 1440.77 201.964 1441.21 202.465C1442.3 202.443 1443.51 202.666 1444.52 201.96C1444.92 201.376 1445.22 200.741 1445.58 200.141C1445.86 199.635 1446.4 199.353 1446.83 198.985C1446.62 200.292 1446.46 201.603 1446.21 202.905C1445.84 203.497 1445.41 204.069 1444.96 204.614C1443.82 205.363 1442.6 205.991 1441.44 206.707C1441.24 208.113 1441.15 209.532 1440.86 210.931C1440.02 212.461 1439.05 213.932 1438.22 215.465C1438.14 216.15 1438.17 216.83 1438.15 217.512C1437.45 218.482 1436.75 219.45 1436.06 220.421C1434.27 220.424 1432.49 220.418 1430.7 220.424C1430.22 219.462 1429.74 218.497 1429.26 217.534C1429.36 216.855 1429.55 216.181 1429.63 215.503C1429.16 213.924 1428.45 212.433 1427.98 210.854C1428.04 209.467 1428.26 208.075 1428.33 206.688C1427.41 206.071 1426.49 205.447 1425.56 204.835C1425.17 204.607 1425.04 204.141 1424.83 203.767C1424.66 203.382 1424.35 203.026 1424.42 202.559C1424.51 201.362 1424.61 200.162 1424.65 198.968Z" fill="white"/>
<path fill-rule="evenodd" clip-rule="evenodd" d="M1472.27 210.476C1458.69 219.323 1445.12 228.198 1431.53 237.035C1419.93 228.168 1408.32 219.327 1396.72 210.463C1410.29 201.614 1423.86 192.765 1437.43 183.911C1449.04 192.766 1460.66 201.619 1472.27 210.476ZM1440.34 188.578C1440.23 189.469 1440.17 190.361 1440.03 191.252C1439.71 192.952 1437.93 194.371 1436.23 194.3C1434.54 194.322 1433.17 192.916 1433.19 191.262C1433.22 190.382 1433.38 189.499 1433.45 188.617C1422.32 195.893 1411.19 203.173 1400.06 210.447C1409.58 217.724 1419.1 225.013 1428.64 232.277C1428.85 231.148 1428.73 229.971 1429.23 228.877C1429.85 227.525 1431.37 226.56 1432.8 226.625C1434.27 226.63 1435.51 227.692 1435.75 229.083C1435.9 230.122 1435.6 231.21 1435.54 232.27C1446.68 225.004 1457.82 217.727 1468.96 210.446C1459.42 203.158 1449.89 195.863 1440.34 188.578Z" fill="white"/>
<path fill-rule="evenodd" clip-rule="evenodd" d="M1384.3 172.105H1501L1492.5 248.819H1375.35L1369 303.214H1356L1372.25 164H1385.25L1384.3 172.105ZM1438 178.734C1421.78 189.319 1405.55 199.89 1389.33 210.478C1403.21 221.045 1417.09 231.619 1430.97 242.189C1447.2 231.633 1463.41 221.046 1479.64 210.478C1465.77 199.887 1451.87 189.322 1438 178.734Z" fill="white"/>
</svg>
